<svg width="178" height="51" viewBox="0 0 178 51" fill="none" xmlns="http://www.w3.org/2000/svg">
<path d="M73.582 0.332031H4.66094C3.62436 0.33372 2.63075 0.746309 1.89798 1.47933C1.16521 2.21235 0.753078 3.20598 0.751953 4.24235L0.751953 38.465C0.753078 39.5014 1.16521 40.495 1.89798 41.2281C2.63075 41.9611 3.62436 42.3737 4.66094 42.3754H33.7687V47.4366C33.7625 47.9718 33.9186 48.4963 34.2164 48.941C34.5142 49.3857 34.9397 49.7298 35.437 49.9279C35.766 50.0656 36.1187 50.1378 36.4754 50.1407C36.8325 50.1408 37.1859 50.0693 37.5149 49.9304C37.8438 49.7915 38.1416 49.5881 38.3905 49.3322L45.2254 42.3754H73.582C74.6191 42.3748 75.6136 41.9626 76.347 41.2294C77.0803 40.4962 77.4926 39.5019 77.4931 38.465V4.24235C77.4926 3.20544 77.0803 2.21116 76.347 1.47796C75.6136 0.744754 74.6191 0.332595 73.582 0.332031ZM22.1716 8.15053C23.1764 8.15137 24.1584 8.45005 24.9935 9.00881C25.8286 9.56756 26.4792 10.3613 26.8632 11.2897C27.2471 12.2181 27.3472 13.2395 27.1506 14.2247C26.9541 15.2099 26.4698 16.1148 25.7589 16.8249C25.0481 17.535 24.1427 18.0184 23.1571 18.2141C22.1715 18.4098 21.15 18.3089 20.2217 17.9243C19.2935 17.5396 18.5001 16.8884 17.9419 16.0531C17.3838 15.2177 17.0858 14.2356 17.0858 13.231C17.087 11.8832 17.6233 10.5909 18.5769 9.6383C19.5306 8.68565 20.8235 8.15053 22.1716 8.15053ZM28.3063 36.3886H24.8506C22.5134 36.3869 20.2723 35.458 18.6194 33.8059C16.9665 32.1537 16.0369 29.9134 16.0346 27.5766C16.0346 24.1598 18.7414 21.3345 22.0588 21.2792H22.1716C22.9774 21.2792 23.7753 21.438 24.5197 21.7463C25.2642 22.0547 25.9406 22.5067 26.5103 23.0765C27.08 23.6462 27.5318 24.3226 27.84 25.067C28.1481 25.8114 28.3066 26.6092 28.3063 27.4149V36.3886ZM58.1887 8.15053C59.1933 8.15221 60.1749 8.45161 61.0095 9.01087C61.844 9.57014 62.494 10.3642 62.8773 11.2927C63.2606 12.2211 63.36 13.2424 63.1629 14.2273C62.9659 15.2123 62.4813 16.1167 61.7703 16.8264C61.0593 17.536 60.1539 18.019 59.1684 18.2144C58.1829 18.4097 57.1616 18.3086 56.2336 17.9238C55.3056 17.5391 54.5125 16.8879 53.9545 16.0526C53.3965 15.2173 53.0987 14.2354 53.0987 13.231C53.1004 11.8826 53.6375 10.5901 54.5919 9.63742C55.5463 8.68477 56.84 8.14997 58.1887 8.15053ZM39.9141 8.15053C40.9191 8.15095 41.9013 8.44927 42.7367 9.00777C43.572 9.56627 44.223 10.3599 44.6073 11.2882C44.9915 12.2166 45.0919 13.238 44.8956 14.2234C44.6993 15.2088 44.2151 16.1138 43.5044 16.8241C42.7936 17.5344 41.8882 18.0181 40.9026 18.2139C39.9169 18.4098 38.8953 18.3091 37.9669 17.9245C37.0385 17.5399 36.245 16.8887 35.6868 16.0533C35.1285 15.2179 34.8305 14.2357 34.8305 13.231C34.8322 11.8852 35.3673 10.5949 36.3185 9.64267C37.2697 8.69045 38.5596 8.15391 39.9056 8.15053H39.9141ZM46.8235 37.814L36.9265 47.8792C36.8374 47.965 36.7252 48.0231 36.6036 48.0463C36.4821 48.0696 36.3563 48.057 36.2418 48.0101C36.1273 47.9632 36.0288 47.884 35.9585 47.7822C35.8881 47.6804 35.8489 47.5603 35.8456 47.4366V35.9206L35.2668 35.6483C34.7862 35.4058 34.3188 35.1381 33.8666 34.8462V27.9234C33.8666 24.3215 36.718 21.3431 40.2269 21.2792C41.0874 21.2637 41.9424 21.4197 42.742 21.7382C43.5415 22.0566 44.2696 22.5311 44.8837 23.134C45.4978 23.7369 45.9856 24.4561 46.3187 25.2495C46.6517 26.043 46.8233 26.8948 46.8235 27.7553V37.814ZM55.3522 36.3886H52.0539V27.5766C52.0539 24.1598 54.7606 21.3345 58.0887 21.2792C58.903 21.2663 59.7117 21.4153 60.4679 21.7178C61.224 22.0203 61.9124 22.4701 62.493 23.0411C63.0736 23.6121 63.5348 24.2928 63.8498 25.0437C64.1648 25.7946 64.3272 26.6006 64.3277 27.4149C64.3249 29.794 63.3784 32.0749 61.6957 33.7572C60.0131 35.4395 57.7318 36.3858 55.3522 36.3886Z" fill="#000046"/>
<path d="M27.2531 13.2308C27.2535 14.2362 26.9557 15.2192 26.3973 16.0553C25.8388 16.8915 25.0449 17.5433 24.1159 17.9282C23.1869 18.3132 22.1646 18.414 21.1783 18.2179C20.192 18.0219 19.286 17.5378 18.5749 16.8269C17.8638 16.1159 17.3796 15.2101 17.1835 14.224C16.9874 13.2379 17.0883 12.2158 17.4733 11.287C17.8583 10.3582 18.5102 9.56439 19.3466 9.00607C20.1829 8.44775 21.166 8.14997 22.1717 8.15039C23.519 8.15152 24.8108 8.68714 25.7636 9.63966C26.7163 10.5922 27.252 11.8838 27.2531 13.2308Z" fill="#0575E6"/>
<path d="M44.9973 13.2308C44.9977 14.2358 44.7001 15.2183 44.1421 16.0542C43.5842 16.8901 42.7909 17.5419 41.8625 17.9272C40.9341 18.3125 39.9124 18.4139 38.9263 18.2187C37.9403 18.0235 37.0343 17.5405 36.3228 16.8306C35.6113 16.1207 35.1262 15.2159 34.929 14.2305C34.7317 13.2451 34.831 12.2233 35.2144 11.2943C35.5978 10.3653 36.2481 9.57083 37.083 9.01124C37.9179 8.45165 38.9 8.15208 39.9052 8.15039C41.2542 8.14926 42.5484 8.68382 43.5033 9.63652C44.4582 10.5892 44.9956 11.8821 44.9973 13.2308Z" fill="#FFE026"/>
<path d="M63.2746 13.2308C63.275 14.2361 62.9773 15.2188 62.4191 16.0549C61.8608 16.891 61.0671 17.5427 60.1384 17.9278C59.2096 18.3129 58.1875 18.414 57.2013 18.2183C56.2151 18.0226 55.3091 17.5389 54.5979 16.8284C53.8866 16.1179 53.4021 15.2124 53.2055 14.2266C53.009 13.2408 53.1092 12.2188 53.4936 11.2899C53.878 10.361 54.5292 9.56697 55.365 9.00814C56.2007 8.44931 57.1835 8.15081 58.1889 8.15039C59.5368 8.15095 60.8294 8.68626 61.7829 9.63878C62.7364 10.5913 63.2729 11.8832 63.2746 13.2308Z" fill="#0575E6"/>
<path d="M84.5918 10.8457H90.8904V11.8541H85.8685V15.6283H89.8626V16.6069H85.8685V21.3023H84.5918V10.8457Z" fill="#000046"/>
<path d="M95.9951 21.5642C95.3053 21.5771 94.6217 21.4315 93.997 21.1387C93.4298 20.8693 92.9417 20.4582 92.5798 19.9452C92.2194 19.4304 91.9994 18.8306 91.9414 18.2049H92.833C92.9198 18.6628 93.116 19.093 93.405 19.4586C93.694 19.8242 94.0672 20.1146 94.4928 20.3048C94.9404 20.5077 95.427 20.6101 95.9185 20.6047C96.3687 20.621 96.8166 20.5329 97.2272 20.3473C97.5933 20.1848 97.9055 19.9213 98.1273 19.5878C98.3406 19.2649 98.4525 18.8855 98.4486 18.4985C98.445 18.236 98.3795 17.978 98.2575 17.7455C98.1355 17.513 97.9604 17.3125 97.7464 17.1604C97.191 16.7501 96.5338 16.4999 95.8461 16.437C95.1923 16.3516 94.5544 16.1717 93.9523 15.903C93.4682 15.6925 93.0472 15.3596 92.7309 14.9371C92.4431 14.5296 92.2939 14.0403 92.3053 13.5415C92.2972 13.0013 92.4522 12.4712 92.75 12.0203C93.0598 11.5594 93.4895 11.1917 93.9927 10.9566C94.572 10.6876 95.2054 10.5551 95.844 10.5694C96.4384 10.5596 97.0279 10.6786 97.5719 10.9183C98.0647 11.1305 98.4905 11.4726 98.8038 11.908C99.1172 12.3435 99.3062 12.8559 99.3508 13.3904H98.4571C98.3497 12.8299 98.0333 12.331 97.5719 11.9948C97.0959 11.6386 96.5127 11.4555 95.9185 11.4757C95.4946 11.4682 95.0746 11.5577 94.6907 11.7374C94.348 11.8931 94.0539 12.1387 93.8395 12.448C93.6398 12.7437 93.5352 13.0933 93.5395 13.45C93.5445 13.6907 93.6085 13.9265 93.7257 14.1367C93.8429 14.347 94.0098 14.5254 94.2119 14.6563C94.7695 15.0339 95.4123 15.2671 96.0823 15.335C96.7456 15.4125 97.3921 15.5957 97.9975 15.8775C98.4969 16.1053 98.9276 16.4604 99.2465 16.9072C99.5473 17.338 99.7057 17.852 99.6998 18.3773C99.7077 18.9526 99.5504 19.5182 99.2465 20.0069C98.9323 20.4998 98.4864 20.8948 97.9592 21.1473C97.3463 21.4386 96.6735 21.5815 95.9951 21.5642Z" fill="#000046"/>
<path d="M107.827 21.6387C106.945 21.6613 106.068 21.4892 105.261 21.1345C104.582 20.8303 104.007 20.334 103.607 19.707C103.209 19.054 102.989 18.3079 102.969 17.5433H105.031C105.208 17.8746 105.444 18.1703 105.729 18.4156C105.97 18.6204 106.248 18.7784 106.548 18.8815C106.853 18.983 107.17 19.0424 107.491 19.0581C107.727 19.089 107.967 19.0768 108.199 19.0219C108.386 18.9803 108.558 18.8892 108.697 18.7581C108.757 18.698 108.805 18.6263 108.836 18.5473C108.868 18.4682 108.883 18.3836 108.88 18.2986C108.884 18.186 108.856 18.0745 108.8 17.9773C108.743 17.88 108.659 17.8011 108.559 17.7497C108.207 17.5905 107.831 17.4941 107.446 17.4646C106.628 17.3933 105.822 17.2189 105.048 16.9455C104.484 16.7452 103.999 16.3685 103.667 15.8711C103.359 15.3931 103.205 14.7549 103.205 13.9564C103.197 13.3103 103.385 12.6769 103.743 12.1395C104.127 11.5863 104.66 11.1533 105.28 10.8907C106.026 10.5731 106.831 10.4186 107.642 10.4375C108.444 10.4176 109.242 10.549 109.995 10.8247C110.608 11.0514 111.136 11.4597 111.51 11.9948C111.885 12.581 112.076 13.2654 112.059 13.9606H109.931C109.876 13.7536 109.778 13.5605 109.643 13.394C109.508 13.2276 109.339 13.0915 109.148 12.9947C108.76 12.7914 108.321 12.7057 107.884 12.748C107.677 12.7651 107.474 12.8169 107.284 12.9011C107.115 12.9719 106.964 13.082 106.846 13.2224C106.738 13.3519 106.681 13.5158 106.684 13.6841C106.679 13.794 106.704 13.9032 106.757 13.9996C106.81 14.0961 106.889 14.1761 106.984 14.2308C107.331 14.3945 107.706 14.4912 108.089 14.5159C108.898 14.5795 109.696 14.7417 110.465 14.9988C111.029 15.1901 111.519 15.5504 111.87 16.0307C112.195 16.4923 112.359 17.1199 112.359 17.9092C112.369 18.5768 112.189 19.2335 111.84 19.8027C111.465 20.3876 110.929 20.8522 110.297 21.1409C109.522 21.492 108.677 21.6622 107.827 21.6387Z" fill="#000046"/>
<path d="M113.822 10.8457H118.372L119.995 15.5985L122.013 10.8457H126.481V21.3023H122.97V15.3453H122.853L120.34 21.3023H119.155L117.063 15.3453H116.946V21.3023H113.822V10.8457Z" fill="#000046"/>
<path d="M128.273 10.8457H132.823L134.444 15.5985L136.464 10.8457H140.932V21.3023H137.415V15.3453H137.298L134.795 21.3023H133.612L131.521 15.3453H131.406V21.3023H128.273V10.8457Z" fill="#000046"/>
<path d="M87.1713 31.7021C86.7179 31.7103 86.2713 31.5917 85.8818 31.3595C85.5053 31.1264 85.205 30.7885 85.0178 30.3873C84.8081 29.9366 84.704 29.444 84.7135 28.947C84.7037 28.462 84.8064 27.9814 85.0136 27.5428C85.1998 27.1511 85.4954 26.8216 85.8647 26.594C86.2155 26.3918 86.6094 26.276 87.0138 26.256C87.4182 26.2361 87.8215 26.3125 88.1905 26.4791C88.4938 26.6213 88.7538 26.8416 88.9438 27.1173C89.1357 27.4015 89.2534 27.7292 89.2864 28.0705H88.7864C88.747 27.8264 88.6459 27.5965 88.4927 27.4024C88.3399 27.2101 88.1427 27.0575 87.9182 26.9578C87.6455 26.8416 87.3493 26.7913 87.0535 26.8109C86.7578 26.8305 86.4708 26.9194 86.2158 27.0705C85.9358 27.2549 85.7142 27.5155 85.5775 27.8215C85.4187 28.1706 85.3402 28.5508 85.3476 28.9342C85.3397 29.3337 85.4166 29.7303 85.5732 30.0979C85.7067 30.4123 85.9284 30.6813 86.2116 30.8724C86.5018 31.0592 86.841 31.1555 87.1862 31.1489C87.4461 31.151 87.7031 31.0935 87.9373 30.9809C88.1616 30.8719 88.357 30.7115 88.5076 30.5128C88.6626 30.3078 88.7702 30.0709 88.8225 29.8192H89.329C89.2892 30.1722 89.1644 30.5102 88.9651 30.8043C88.7737 31.087 88.5118 31.3151 88.2054 31.4659C87.8836 31.6234 87.5296 31.7042 87.1713 31.7021Z" fill="#000046"/>
<path d="M91.7416 31.7958C91.3975 31.8036 91.0587 31.7104 90.767 31.5278C90.4825 31.3434 90.256 31.0823 90.1137 30.7746C89.9504 30.4238 89.8696 30.0403 89.8775 29.6535C89.8693 29.2714 89.9502 28.8926 90.1137 28.5472C90.2574 28.2413 90.4865 27.9834 90.7734 27.8047C91.0726 27.6319 91.412 27.541 91.7575 27.541C92.103 27.541 92.4425 27.6319 92.7417 27.8047C93.0255 27.9824 93.2523 28.2379 93.395 28.5408C93.5549 28.8835 93.6342 29.2583 93.6269 29.6364C93.634 30.0269 93.5548 30.4141 93.395 30.7704C93.2542 31.0839 93.024 31.3488 92.7332 31.532C92.4347 31.7129 92.0905 31.8045 91.7416 31.7958ZM91.7543 31.3384C91.9938 31.3429 92.2279 31.2681 92.4204 31.1257C92.6197 30.9709 92.7734 30.765 92.8651 30.53C92.9784 30.2475 93.0335 29.945 93.0268 29.6407C93.0322 29.3493 92.9786 29.0599 92.8694 28.7897C92.7776 28.5605 92.6226 28.362 92.4225 28.2174C92.2305 28.0789 91.9997 28.0044 91.7629 28.0047C91.5221 28.0042 91.2871 28.0785 91.0904 28.2174C90.8896 28.3629 90.7328 28.5609 90.6372 28.7897C90.5262 29.0594 90.4719 29.3491 90.4776 29.6407C90.4713 29.9448 90.5256 30.247 90.6372 30.53C90.7305 30.7659 90.8865 30.9719 91.0883 31.1257C91.2809 31.2678 91.515 31.3426 91.7543 31.3384Z" fill="#000046"/>
<path d="M97.611 31.5232H97.0195V29.2531C97.0224 29.035 96.9834 28.8183 96.9046 28.6149C96.8386 28.4416 96.725 28.2904 96.5769 28.1788C96.4328 28.0765 96.2599 28.0228 96.0832 28.0256C95.8742 28.022 95.6699 28.0879 95.5023 28.2128C95.3267 28.3429 95.1893 28.5178 95.1044 28.7191C95.008 28.942 94.9594 29.1826 94.9618 29.4255V31.5317H94.3809V27.6554H94.9724V28.5404H95.0192C95.1301 28.2545 95.3161 28.0039 95.5576 27.815C95.7744 27.6429 96.0426 27.5485 96.3194 27.5469C96.5597 27.5455 96.7942 27.6199 96.9897 27.7596C97.1929 27.9046 97.3514 28.1036 97.4472 28.3341C97.5607 28.6032 97.6165 28.8931 97.611 29.1851V31.5232Z" fill="#000046"/>
<path d="M101.811 31.5231H101.217V29.253C101.219 29.0351 101.181 28.8187 101.104 28.6148C101.037 28.4413 100.923 28.2902 100.774 28.1787C100.631 28.0764 100.459 28.0227 100.283 28.0255C100.074 28.0188 99.8694 28.0809 99.6997 28.2021C99.5254 28.3329 99.3888 28.5076 99.3039 28.7084C99.2065 28.931 99.1579 29.1718 99.1613 29.4147V31.5209H98.5762V27.6447H99.1699V28.5297H99.2273C99.3369 28.2431 99.5231 27.9922 99.7657 27.8042C99.9819 27.6326 100.249 27.5382 100.525 27.5362C100.766 27.5347 101.002 27.6091 101.198 27.7489C101.4 27.8945 101.559 28.0933 101.655 28.3233C101.768 28.5927 101.823 28.8824 101.819 29.1743L101.811 31.5231Z" fill="#000046"/>
<path d="M104.367 31.606C104.03 31.608 103.699 31.5206 103.407 31.3528C103.128 31.1891 102.903 30.9483 102.758 30.6593C102.598 30.3424 102.517 29.9911 102.524 29.636C102.517 29.2585 102.594 28.8842 102.749 28.5403C102.885 28.2365 103.108 27.9797 103.389 27.8021C103.67 27.6245 103.998 27.5342 104.331 27.5425C104.639 27.5369 104.943 27.6187 105.207 27.7787C105.465 27.9416 105.673 28.1729 105.807 28.4467C105.957 28.7574 106.036 29.0974 106.039 29.4424V29.6274H103.124C103.119 29.8945 103.174 30.1593 103.286 30.4019C103.382 30.6176 103.54 30.8003 103.739 30.9273C103.94 31.0522 104.173 31.1165 104.409 31.1124C104.675 31.1239 104.938 31.0542 105.163 30.9125C105.37 30.794 105.522 30.5994 105.588 30.3699L105.988 30.4274C105.951 30.662 105.852 30.8825 105.701 31.0656C105.551 31.2462 105.359 31.3866 105.141 31.4741C104.894 31.5682 104.631 31.613 104.367 31.606ZM105.46 29.3849C105.459 29.1297 105.407 28.8772 105.307 28.6424C105.221 28.4441 105.083 28.2728 104.907 28.1467C104.738 28.0302 104.536 27.9692 104.331 27.9723C104.122 27.9692 103.917 28.0301 103.743 28.1467C103.561 28.2723 103.414 28.4431 103.318 28.6424C103.203 28.8736 103.14 29.1269 103.132 29.3849H105.46Z" fill="#000046"/>
<path d="M108.373 31.6657C108.036 31.6722 107.704 31.5861 107.413 31.4168C107.135 31.2479 106.913 31.0008 106.775 30.7063C106.618 30.3741 106.541 30.0098 106.549 29.6425C106.542 29.2614 106.62 28.8834 106.777 28.5362C106.917 28.2293 107.143 27.9701 107.429 27.7908C107.715 27.6115 108.047 27.5201 108.384 27.5278C108.658 27.5244 108.928 27.5887 109.171 27.715C109.402 27.8371 109.596 28.0176 109.735 28.2384C109.881 28.4757 109.969 28.7438 109.992 29.0213H109.52C109.485 28.7453 109.355 28.4901 109.152 28.3001C108.955 28.1192 108.696 28.0216 108.428 28.0278C108.19 28.0237 107.957 28.0936 107.76 28.2277C107.56 28.3712 107.403 28.568 107.309 28.7958C107.199 29.0612 107.145 29.3466 107.15 29.634C107.144 29.9082 107.197 30.1804 107.307 30.4318C107.401 30.6496 107.554 30.8363 107.75 30.9701C107.946 31.1006 108.178 31.1681 108.414 31.1637C108.698 31.176 108.977 31.0785 109.192 30.8913C109.402 30.7026 109.537 30.4441 109.571 30.1637H110.035C110.011 30.4411 109.922 30.7088 109.773 30.9445C109.631 31.1694 109.43 31.3511 109.192 31.47C108.939 31.6001 108.658 31.6673 108.373 31.6657Z" fill="#000046"/>
<path d="M111.938 31.6057C111.802 31.6136 111.666 31.5925 111.539 31.5437C111.412 31.4949 111.297 31.4196 111.202 31.3227C111.014 31.1019 110.919 30.8165 110.938 30.5271V28.2017H110.41V27.7869H110.938V26.9678H111.523V27.789H112.468V28.2017H111.519V30.5717C111.505 30.7402 111.558 30.9073 111.666 31.0376C111.718 31.0907 111.781 31.1324 111.85 31.1602C111.919 31.188 111.993 31.2013 112.068 31.1993C112.212 31.2047 112.357 31.1831 112.493 31.1355V31.4929C112.413 31.5241 112.329 31.5483 112.244 31.5653C112.144 31.588 112.041 31.6015 111.938 31.6057Z" fill="#000046"/>
<path d="M113.957 27.7891H114.572L115.464 30.8292H115.508L116.421 27.7891H116.894L117.787 30.8292H117.836L118.721 27.7891H119.285L118.094 31.5228H117.509L116.623 28.5954L115.715 31.5228H115.108L113.957 27.7891Z" fill="#000046"/>
<path d="M120.301 26.3896C120.348 26.3902 120.395 26.4003 120.439 26.4193C120.482 26.4383 120.521 26.4659 120.554 26.5003C120.587 26.5303 120.613 26.5669 120.63 26.6075C120.648 26.6482 120.657 26.6921 120.656 26.7364C120.656 26.781 120.647 26.8251 120.63 26.866C120.612 26.907 120.586 26.9439 120.554 26.9747C120.521 27.0086 120.482 27.0353 120.438 27.0532C120.395 27.0712 120.348 27.0799 120.301 27.079C120.254 27.0799 120.207 27.0716 120.163 27.0544C120.119 27.0373 120.079 27.0116 120.046 26.979C120.013 26.9479 119.986 26.9102 119.969 26.8685C119.951 26.8267 119.943 26.7817 119.943 26.7364C119.943 26.6914 119.951 26.6467 119.969 26.6053C119.986 26.5639 120.013 26.5266 120.046 26.496C120.113 26.4281 120.205 26.3899 120.301 26.3896ZM120.614 31.5233H120.022V27.647H120.614V31.5233Z" fill="#000046"/>
<path d="M122.792 31.6057C122.656 31.6136 122.52 31.5925 122.393 31.5437C122.266 31.4949 122.151 31.4196 122.055 31.3227C121.867 31.1019 121.772 30.8165 121.791 30.5271V28.2017H121.264V27.7869H121.791V26.9678H122.377V27.789H123.319V28.2017H122.37V30.5717C122.357 30.7402 122.409 30.9073 122.517 31.0376C122.57 31.0909 122.633 31.1328 122.702 31.1606C122.772 31.1885 122.846 31.2016 122.921 31.1993C123.066 31.205 123.21 31.1833 123.347 31.1355V31.4929C123.266 31.5241 123.183 31.5483 123.098 31.5653C122.997 31.588 122.895 31.6015 122.792 31.6057Z" fill="#000046"/>
<path d="M124.105 26.0537H124.699V28.5237H124.763C124.873 28.2469 125.053 28.003 125.284 27.8153C125.492 27.6384 125.755 27.5405 126.027 27.5387C126.272 27.533 126.513 27.6077 126.712 27.7514C126.918 27.903 127.079 28.1064 127.18 28.3408C127.295 28.6015 127.352 28.8837 127.348 29.1683V31.5086H126.755V29.2662C126.759 29.0478 126.719 28.8308 126.638 28.628C126.569 28.4515 126.454 28.2965 126.306 28.1791C126.168 28.0706 125.996 28.0128 125.821 28.0152C125.606 28.0143 125.4 28.094 125.242 28.2386C125.065 28.3967 124.928 28.5942 124.842 28.8152C124.747 29.0431 124.699 29.2875 124.699 29.5343V31.5128H124.105V26.0537Z" fill="#000046"/>
<path d="M130.74 29.2529L128.982 26.417H129.668L131.055 28.7572H131.083L132.41 26.417H133.011L131.355 29.2529V31.523H130.74V29.2529Z" fill="#000046"/>
<path d="M135.247 31.7949C134.903 31.8025 134.563 31.7094 134.271 31.5268C133.987 31.3413 133.761 31.0805 133.617 30.7737C133.455 30.4225 133.375 30.0391 133.383 29.6525C133.375 29.2707 133.456 28.8922 133.617 28.5462C133.763 28.2406 133.992 27.9829 134.279 27.8037C134.578 27.631 134.917 27.54 135.262 27.54C135.607 27.54 135.947 27.631 136.245 27.8037C136.53 27.9814 136.757 28.2369 136.901 28.5398C137.061 28.8826 137.14 29.2574 137.133 29.6355C137.14 30.0259 137.061 30.4131 136.901 30.7694C136.759 31.0825 136.529 31.3473 136.239 31.5311C135.94 31.7118 135.596 31.8033 135.247 31.7949ZM135.26 31.3375C135.499 31.3431 135.733 31.2682 135.924 31.1247C136.125 30.9707 136.279 30.7647 136.371 30.529C136.484 30.2465 136.539 29.9441 136.533 29.6398C136.538 29.3484 136.484 29.0589 136.375 28.7888C136.283 28.5596 136.128 28.3611 135.928 28.2165C135.736 28.0782 135.505 28.0038 135.269 28.0037C135.028 28.0033 134.793 28.0776 134.596 28.2165C134.394 28.3607 134.237 28.5591 134.143 28.7888C134.032 29.0585 133.978 29.3481 133.983 29.6398C133.977 29.9438 134.031 30.2461 134.143 30.529C134.236 30.7654 134.392 30.9716 134.594 31.1247C134.787 31.2669 135.021 31.3417 135.26 31.3375Z" fill="#000046"/>
<path d="M141.059 30.8952C141.057 30.9264 141.061 30.9576 141.073 30.9866C141.084 31.0156 141.102 31.0418 141.125 31.0633C141.178 31.1072 141.247 31.1285 141.316 31.1229V31.5228H141.052C140.948 31.526 140.845 31.4986 140.756 31.4441C140.674 31.3947 140.609 31.3202 140.571 31.2314C140.529 31.1352 140.515 31.0289 140.531 30.925V30.674H140.461C140.362 30.9444 140.186 31.1798 139.954 31.3505C139.72 31.5153 139.44 31.601 139.154 31.5952C138.912 31.6018 138.671 31.5492 138.454 31.442C138.255 31.3361 138.096 31.168 138.001 30.9633C137.884 30.7094 137.829 30.4318 137.839 30.1527V27.7529H138.428V30.0378C138.405 30.3275 138.492 30.6153 138.671 30.8442C138.76 30.9349 138.867 31.0054 138.986 31.0509C139.105 31.0964 139.232 31.1159 139.358 31.108C139.548 31.1091 139.735 31.063 139.903 30.9739C140.074 30.8813 140.216 30.7437 140.314 30.5761C140.423 30.3893 140.478 30.1755 140.471 29.9591V27.7529H141.056L141.059 30.8952Z" fill="#000046"/>
<path d="M142.896 28.6472C142.977 28.3998 143.124 28.1791 143.321 28.009C143.448 27.9065 143.592 27.8279 143.747 27.7771C143.898 27.7284 144.059 27.7174 144.215 27.7452V28.2813C143.992 28.2558 143.767 28.2843 143.558 28.3642C143.358 28.4419 143.188 28.5823 143.074 28.7642C142.946 28.9797 142.884 29.2284 142.896 29.479V31.5342H142.311V27.6494H142.896L142.86 28.6578L142.896 28.6472Z" fill="#000046"/>
<path d="M147.513 26.417H148.32L150.156 31.523H149.518L149.011 30.1018H146.764L146.258 31.523H145.686L147.513 26.417ZM146.901 29.6529H148.871L147.877 26.9255L146.901 29.6529Z" fill="#000046"/>
<path d="M154.014 30.8952C154.011 30.9262 154.016 30.9573 154.027 30.9863C154.038 31.0154 154.055 31.0416 154.077 31.0633C154.132 31.1071 154.201 31.1284 154.271 31.1229V31.5228H154.007C153.903 31.526 153.8 31.4986 153.711 31.4441C153.628 31.3948 153.562 31.3203 153.524 31.2314C153.484 31.1347 153.47 31.0287 153.486 30.925V30.674H153.416C153.317 30.945 153.14 31.1805 152.907 31.3505C152.674 31.5159 152.393 31.6016 152.107 31.5952C151.865 31.6015 151.626 31.5489 151.409 31.442C151.21 31.3358 151.05 31.1678 150.954 30.9633C150.839 30.7089 150.784 30.4316 150.794 30.1527V27.7529H151.379V30.0378C151.356 30.3275 151.443 30.6153 151.622 30.8442C151.71 30.9347 151.817 31.0051 151.936 31.0506C152.054 31.0962 152.181 31.1157 152.307 31.108C152.498 31.1093 152.686 31.0633 152.854 30.9739C153.025 30.8813 153.167 30.7437 153.265 30.5761C153.373 30.3889 153.427 30.1754 153.422 29.9591V27.7529H154.007L154.014 30.8952Z" fill="#000046"/>
<path d="M158.644 30.9015C158.643 30.9318 158.649 30.9619 158.661 30.9897C158.672 31.0176 158.69 31.0427 158.712 31.0632C158.768 31.1068 158.837 31.1281 158.908 31.1228V31.5228H158.644C158.545 31.5187 158.45 31.4837 158.372 31.4228C158.291 31.362 158.23 31.2803 158.193 31.1866C158.156 31.0939 158.149 30.9922 158.172 30.8952V30.508H158.087L158.072 30.5441C157.948 30.8442 157.753 31.1094 157.503 31.3164C157.264 31.514 156.963 31.6203 156.652 31.6164C156.345 31.6223 156.044 31.5339 155.788 31.3632C155.536 31.1883 155.337 30.9457 155.216 30.6633C155.079 30.3414 155.01 29.9942 155.016 29.6442C155.012 29.2698 155.085 28.8984 155.229 28.5528C155.349 28.2546 155.552 27.9969 155.814 27.8103C156.074 27.6327 156.382 27.5405 156.697 27.5465C156.889 27.5467 157.078 27.5888 157.252 27.6699C157.435 27.7559 157.598 27.8791 157.731 28.0316C157.869 28.1879 157.969 28.3734 158.025 28.5741H158.061V26.0615H158.644V30.9015ZM156.823 31.1441C157.058 31.1489 157.289 31.0805 157.484 30.9484C157.672 30.8101 157.819 30.6243 157.91 30.4101C158.016 30.1615 158.068 29.8932 158.063 29.6229C158.068 29.3377 158.017 29.0544 157.912 28.789C157.825 28.564 157.678 28.3674 157.486 28.2209C157.303 28.082 157.078 28.0072 156.848 28.0082C156.613 28.006 156.384 28.0807 156.195 28.2209C156.003 28.3702 155.856 28.5688 155.769 28.7953C155.662 29.0659 155.61 29.3553 155.616 29.6463C155.611 29.915 155.662 30.1818 155.767 30.4292C155.856 30.6417 156.004 30.8247 156.193 30.9569C156.379 31.0837 156.601 31.1491 156.827 31.1441H156.823Z" fill="#000046"/>
<path d="M160.262 26.3898C160.309 26.389 160.355 26.3974 160.398 26.4146C160.442 26.4317 160.482 26.4573 160.515 26.4898C160.548 26.5198 160.574 26.5563 160.591 26.597C160.609 26.6377 160.618 26.6816 160.617 26.7259C160.617 26.7705 160.608 26.8146 160.591 26.8555C160.573 26.8965 160.547 26.9334 160.515 26.9642C160.482 26.998 160.443 27.0248 160.399 27.0427C160.356 27.0607 160.309 27.0694 160.262 27.0684C160.215 27.0695 160.169 27.0612 160.125 27.044C160.082 27.0268 160.042 27.0011 160.009 26.9685C159.975 26.9378 159.948 26.9003 159.93 26.8585C159.912 26.8166 159.903 26.7714 159.904 26.7259C159.903 26.6807 159.912 26.6358 159.93 26.5944C159.948 26.5529 159.975 26.5157 160.009 26.4855C160.077 26.4216 160.168 26.3873 160.262 26.3898ZM160.575 31.5234H159.983V27.6471H160.575V31.5234Z" fill="#000046"/>
<path d="M163.183 31.606C162.846 31.608 162.515 31.5206 162.223 31.3528C161.945 31.1891 161.719 30.9483 161.574 30.6593C161.414 30.3424 161.334 29.9911 161.34 29.636C161.333 29.2585 161.41 28.8842 161.566 28.5403C161.701 28.2365 161.924 27.9797 162.205 27.8021C162.487 27.6245 162.814 27.5342 163.147 27.5425C163.456 27.5369 163.76 27.6187 164.024 27.7787C164.282 27.9416 164.489 28.1729 164.624 28.4467C164.773 28.7574 164.853 29.0974 164.856 29.4424V29.6274H161.94C161.935 29.8945 161.99 30.1593 162.102 30.4019C162.198 30.6176 162.356 30.8003 162.555 30.9273C162.756 31.0522 162.989 31.1165 163.226 31.1124C163.492 31.1237 163.755 31.054 163.981 30.9125C164.188 30.7937 164.341 30.5991 164.407 30.3699L164.807 30.4274C164.77 30.6616 164.671 30.8818 164.522 31.0656C164.371 31.2458 164.178 31.386 163.96 31.4741C163.712 31.5685 163.448 31.6133 163.183 31.606ZM164.277 29.3849C164.277 29.1296 164.225 28.8769 164.124 28.6424C164.037 28.4441 163.899 28.2728 163.724 28.1467C163.554 28.0302 163.353 27.9692 163.147 27.9723C162.938 27.9692 162.733 28.0301 162.56 28.1467C162.377 28.2723 162.23 28.4431 162.134 28.6424C162.019 28.8736 161.956 29.1269 161.949 29.3849H164.277Z" fill="#000046"/>
<path d="M168.838 31.5231H168.246V29.253C168.249 29.0349 168.21 28.8182 168.131 28.6148C168.065 28.4415 167.952 28.2903 167.804 28.1787C167.659 28.0766 167.487 28.023 167.31 28.0255C167.102 28.0196 166.898 28.0816 166.729 28.2021C166.555 28.3329 166.418 28.5076 166.333 28.7084C166.236 28.931 166.187 29.1718 166.191 29.4147V31.5209H165.605V27.6447H166.197V28.5297H166.254C166.365 28.2438 166.551 27.9931 166.793 27.8042C167.01 27.6321 167.278 27.5377 167.555 27.5362C167.795 27.5347 168.03 27.6092 168.225 27.7489C168.428 27.8938 168.587 28.0928 168.682 28.3233C168.796 28.5924 168.852 28.8823 168.846 29.1743L168.838 31.5231Z" fill="#000046"/>
<path d="M171.387 31.6656C171.05 31.672 170.718 31.5859 170.427 31.4167C170.149 31.2478 169.927 31.0006 169.789 30.7061C169.633 30.3736 169.555 30.0095 169.563 29.6423C169.555 29.2609 169.633 28.8827 169.793 28.536C169.93 28.2324 170.152 27.9746 170.431 27.7936C170.719 27.614 171.054 27.5216 171.393 27.5276C171.666 27.5244 171.936 27.5887 172.178 27.7148C172.41 27.8359 172.604 28.0166 172.742 28.2382C172.888 28.4755 172.976 28.7436 173 29.0211H172.527C172.492 28.7457 172.363 28.4908 172.161 28.2999C171.964 28.1189 171.704 28.0213 171.436 28.0276C171.198 28.024 170.964 28.0938 170.767 28.2276C170.567 28.3706 170.411 28.5676 170.318 28.7956C170.206 29.0606 170.151 29.3462 170.157 29.6338C170.152 29.9079 170.206 30.1799 170.314 30.4316C170.408 30.649 170.562 30.8355 170.757 30.9699C170.954 31.0998 171.185 31.1673 171.421 31.1635C171.706 31.1765 171.985 31.0789 172.2 30.8912C172.41 30.703 172.545 30.4442 172.578 30.1636H173.042C173.02 30.441 172.931 30.7089 172.783 30.9444C172.639 31.1689 172.438 31.3505 172.2 31.4698C171.948 31.599 171.669 31.6661 171.387 31.6656Z" fill="#000046"/>
<path d="M175.38 31.6061C175.043 31.6081 174.712 31.5207 174.42 31.3529C174.145 31.1876 173.924 30.9469 173.782 30.6593C173.622 30.3423 173.542 29.9909 173.55 29.636C173.539 29.2595 173.611 28.8853 173.763 28.5404C173.898 28.2362 174.121 27.9792 174.403 27.8016C174.685 27.624 175.013 27.5339 175.346 27.5426C175.654 27.5366 175.957 27.6177 176.22 27.7766C176.478 27.9396 176.686 28.1708 176.821 28.4446C176.97 28.7554 177.05 29.0954 177.053 29.4403V29.6254H174.139C174.134 29.8922 174.189 30.1567 174.299 30.3998C174.395 30.6155 174.553 30.7983 174.752 30.9253C174.954 31.0504 175.187 31.1147 175.425 31.1104C175.69 31.1213 175.953 31.0516 176.178 30.9104C176.385 30.7916 176.537 30.5971 176.604 30.3679L177.004 30.4253C176.967 30.6595 176.868 30.8797 176.718 31.0636C176.568 31.2442 176.375 31.3846 176.157 31.472C175.909 31.5671 175.645 31.6127 175.38 31.6061ZM176.474 29.385C176.475 29.1295 176.423 28.8767 176.321 28.6425C176.234 28.4442 176.096 28.2729 175.92 28.1468C175.752 28.0305 175.551 27.9696 175.346 27.9723C175.136 27.969 174.931 28.0299 174.756 28.1468C174.575 28.2732 174.428 28.4438 174.331 28.6425C174.218 28.8743 174.155 29.1273 174.146 29.385H176.474Z" fill="#000046"/>
</svg>
